#Comment line ignore any data following # character 
#Hierarchical Translation and Rotation (.htr) file 
[Header]	
#Header keywords are followed by a single value 
FileType HTR		#Single word string
DataType HTRS		#Translation followed by rotation and scale data
FileVersion 1		#integer
NumSegments 64		#integer
NumFrames 3		#integer
DataFrameRate 30		#integer, data frame rate in this file
EulerRotationOrder ZYX
CalibrationUnits mm
RotationUnits Degrees
GlobalAxisofGravity Y
BoneLengthAxis Y
ScaleFactor 1.00
[SegmentNames&Hierarchy]
#CHILD	PARENT
Pinger_Root GLOBAL
Pelvis Pinger_Root
L_Hip Pelvis
R_Hip Pelvis
Rear_Leg01 Pelvis
Spine1 Pelvis
L_Leg01 L_Hip
L_Leg02 L_Leg01
L_Leg03 L_Leg02
L_Foot L_Leg03
L_Toe1_01 L_Foot
L_Toe2_01 L_Foot
L_Toe3_01 L_Foot
planeAlignerLeft L_Foot
L_Toe1_02 L_Toe1_01
L_Toe1_03 L_Toe1_02
L_Toe2_02 L_Toe2_01
L_Toe2_03 L_Toe2_02
L_Toe3_02 L_Toe3_01
L_Toe3_03 L_Toe3_02
planeLockWeightLeft planeAlignerLeft
R_Leg01 R_Hip
R_Leg02 R_Leg01
R_Leg03 R_Leg02
R_Foot R_Leg03
planeAlignerRight R_Foot
R_Toe1_01 R_Foot
R_Toe2_01 R_Foot
R_Toe3_01 R_Foot
planeLockWeightRight planeAlignerRight
R_Toe1_02 R_Toe1_01
R_Toe1_03 R_Toe1_02
R_Toe2_02 R_Toe2_01
R_Toe2_03 R_Toe2_02
R_Toe3_02 R_Toe3_01
R_Toe3_03 R_Toe3_02
Rear_Leg02 Rear_Leg01
Rear_Leg03 Rear_Leg02
Rear_Leg04 Rear_Leg03
Rear_Foot Rear_Leg04
planeAlignerCenter Rear_Foot
Rear_Toe1_01 Rear_Foot
Rear_Toe2_01 Rear_Foot
Rear_Toe3_01 Rear_Foot
planeLockWeightCenter planeAlignerCenter
Rear_Toe1_02 Rear_Toe1_01
Rear_Toe1_03 Rear_Toe1_02
Rear_Toe2_02 Rear_Toe2_01
Rear_Toe2_03 Rear_Toe2_02
Rear_Toe3_02 Rear_Toe3_01
Rear_Toe3_03 Rear_Toe3_02
Back_Bone Spine1
Head Spine1
Motor_Bone Back_Bone
Ping_Mechanism Back_Bone
BN_LookIK Head
bottomMouth Head
L_Mouth01 Head
L_mouthFront Head
mouthGun Head
R_Mouth01 Head
R_mouthFront Head
TopMouth Head
weapon_bone Head
[BasePosition]
#SegmentName Tx, Ty, Tz, Rx, Ry, Rz, BoneLength
Pinger_Root 0.000000 0.000000 0.000000 -90.000000 0.000000 0.000000 10.000000 
Pelvis 0.000000 0.000000 0.000000 0.000000 0.000000 0.000000 10.000000 
L_Hip 0.000000 0.000000 0.000000 0.000000 0.000000 0.000000 10.000000 
R_Hip 0.000000 0.000000 0.000000 0.000000 0.000000 0.000000 10.000000 
Rear_Leg01 0.000000 0.000000 0.000000 0.000000 0.000000 0.000000 10.000000 
Spine1 0.000000 0.000000 0.000000 0.000000 0.000000 0.000000 10.000000 
L_Leg01 0.000000 0.000000 0.000000 0.000000 0.000000 0.000000 10.000000 
L_Leg02 0.000000 0.000000 0.000000 0.000000 0.000000 0.000000 10.000000 
L_Leg03 0.000000 0.000000 0.000000 0.000000 0.000000 0.000000 10.000000 
L_Foot 0.000000 0.000000 0.000000 0.000000 0.000000 0.000000 10.000000 
L_Toe1_01 0.000000 0.000000 0.000000 0.000000 0.000000 0.000000 10.000000 
L_Toe2_01 0.000000 0.000000 0.000000 0.000000 0.000000 0.000000 10.000000 
L_Toe3_01 0.000000 0.000000 0.000000 0.000000 0.000000 0.000000 10.000000 
planeAlignerLeft 0.000000 0.000000 0.000000 0.000000 0.000000 0.000000 10.000000 
L_Toe1_02 0.000000 0.000000 0.000000 0.000000 0.000000 0.000000 10.000000 
L_Toe1_03 0.000000 0.000000 0.000000 0.000000 0.000000 0.000000 10.000000 
L_Toe2_02 0.000000 0.000000 0.000000 0.000000 0.000000 0.000000 10.000000 
L_Toe2_03 0.000000 0.000000 0.000000 0.000000 0.000000 0.000000 10.000000 
L_Toe3_02 0.000000 0.000000 0.000000 0.000000 0.000000 0.000000 10.000000 
L_Toe3_03 0.000000 0.000000 0.000000 0.000000 0.000000 0.000000 10.000000 
planeLockWeightLeft 0.000000 0.000000 0.000000 0.000000 0.000000 0.000000 10.000000 
R_Leg01 0.000000 0.000000 0.000000 0.000000 0.000000 0.000000 10.000000 
R_Leg02 0.000000 0.000000 0.000000 0.000000 0.000000 0.000000 10.000000 
R_Leg03 0.000000 0.000000 0.000000 0.000000 0.000000 0.000000 10.000000 
R_Foot 0.000000 0.000000 0.000000 0.000000 0.000000 0.000000 10.000000 
planeAlignerRight 0.000000 0.000000 0.000000 0.000000 0.000000 0.000000 10.000000 
R_Toe1_01 0.000000 0.000000 0.000000 0.000000 0.000000 0.000000 10.000000 
R_Toe2_01 0.000000 0.000000 0.000000 0.000000 0.000000 0.000000 10.000000 
R_Toe3_01 0.000000 0.000000 0.000000 0.000000 0.000000 0.000000 10.000000 
planeLockWeightRight 0.000000 0.000000 0.000000 0.000000 0.000000 0.000000 10.000000 
R_Toe1_02 0.000000 0.000000 0.000000 0.000000 0.000000 0.000000 10.000000 
R_Toe1_03 0.000000 0.000000 0.000000 0.000000 0.000000 0.000000 10.000000 
R_Toe2_02 0.000000 0.000000 0.000000 0.000000 0.000000 0.000000 10.000000 
R_Toe2_03 0.000000 0.000000 0.000000 0.000000 0.000000 0.000000 10.000000 
R_Toe3_02 0.000000 0.000000 0.000000 0.000000 0.000000 0.000000 10.000000 
R_Toe3_03 0.000000 0.000000 0.000000 0.000000 0.000000 0.000000 10.000000 
Rear_Leg02 0.000000 0.000000 0.000000 0.000000 0.000000 0.000000 10.000000 
Rear_Leg03 0.000000 0.000000 0.000000 0.000000 0.000000 0.000000 10.000000 
Rear_Leg04 0.000000 0.000000 0.000000 0.000000 0.000000 0.000000 10.000000 
Rear_Foot 0.000000 0.000000 0.000000 0.000000 0.000000 0.000000 10.000000 
planeAlignerCenter 0.000000 0.000000 0.000000 0.000000 0.000000 0.000000 10.000000 
Rear_Toe1_01 0.000000 0.000000 0.000000 0.000000 0.000000 0.000000 10.000000 
Rear_Toe2_01 0.000000 0.000000 0.000000 0.000000 0.000000 0.000000 10.000000 
Rear_Toe3_01 0.000000 0.000000 0.000000 0.000000 0.000000 0.000000 10.000000 
planeLockWeightCenter 0.000000 0.000000 0.000000 0.000000 0.000000 0.000000 10.000000 
Rear_Toe1_02 0.000000 0.000000 0.000000 0.000000 0.000000 0.000000 10.000000 
Rear_Toe1_03 0.000000 0.000000 0.000000 0.000000 0.000000 0.000000 10.000000 
Rear_Toe2_02 0.000000 0.000000 0.000000 0.000000 0.000000 0.000000 10.000000 
Rear_Toe2_03 0.000000 0.000000 0.000000 0.000000 0.000000 0.000000 10.000000 
Rear_Toe3_02 0.000000 0.000000 0.000000 0.000000 0.000000 0.000000 10.000000 
Rear_Toe3_03 0.000000 0.000000 0.000000 0.000000 0.000000 0.000000 10.000000 
Back_Bone 0.000000 0.000000 0.000000 0.000000 0.000000 0.000000 10.000000 
Head 0.000000 0.000000 0.000000 0.000000 0.000000 0.000000 10.000000 
Motor_Bone 0.000000 0.000000 0.000000 0.000000 0.000000 0.000000 10.000000 
Ping_Mechanism 0.000000 0.000000 0.000000 0.000000 0.000000 0.000000 10.000000 
BN_LookIK 0.000000 0.000000 0.000000 0.000000 0.000000 0.000000 10.000000 
bottomMouth 0.000000 0.000000 0.000000 0.000000 0.000000 0.000000 10.000000 
L_Mouth01 0.000000 0.000000 0.000000 0.000000 0.000000 0.000000 10.000000 
L_mouthFront 0.000000 0.000000 0.000000 0.000000 0.000000 0.000000 10.000000 
mouthGun 0.000000 0.000000 0.000000 0.000000 0.000000 0.000000 10.000000 
R_Mouth01 0.000000 0.000000 0.000000 0.000000 0.000000 0.000000 10.000000 
R_mouthFront 0.000000 0.000000 0.000000 0.000000 0.000000 0.000000 10.000000 
TopMouth 0.000000 0.000000 0.000000 0.000000 0.000000 0.000000 10.000000 
weapon_bone 0.000000 0.000000 0.000000 0.000000 0.000000 0.000000 10.000000 
#Beginning of Data. Separated by tabs
#Fr	Tx	Ty	Tz	Rx	Ry	Rz	SF
[Pinger_Root]
73 0.000000 0.000000 0.000000 -0.000070 0.000028 43.739803 0.000000
74 0.000000 0.000000 0.000000 -0.000070 0.000028 44.426586 0.000000
75 0.000000 0.000000 0.000000 -0.000069 0.000029 44.853275 0.000000
[Pelvis]
73 600.631348 460.438202 3399.658203 -132.576752 -75.176918 101.846954 3482.877930
74 517.472656 549.505615 3549.837646 -137.997314 -73.039452 108.375702 3629.198486
75 465.870026 608.875793 3675.813965 -140.146744 -71.621078 112.021568 3754.913086
[L_Hip]
73 5.766392 125.831482 872.656799 160.158691 -45.484905 122.312202 881.701050
74 5.766392 125.831482 872.656799 160.158691 -45.484905 122.312202 881.701050
75 5.766392 125.831482 872.656799 160.158691 -45.484905 122.312202 881.701050
[R_Hip]
73 5.765438 125.836372 -872.654907 38.087841 49.812687 125.703735 881.699829
74 5.765438 125.836372 -872.654907 38.087841 49.812687 125.703735 881.699829
75 5.765438 125.836372 -872.654907 38.087841 49.812687 125.703735 881.699829
[Rear_Leg01]
73 -192.298416 -925.602966 -0.001907 -155.928696 1.199860 -153.202087 945.367432
74 -192.298416 -925.602966 -0.001907 -155.728210 -1.025526 -154.784973 945.367432
75 -192.298416 -925.602966 -0.001907 -156.273270 -3.237239 -156.385284 945.367432
[Spine1]
73 290.604584 5.007505 0.000477 29.232340 -18.507872 -10.423126 290.647736
74 290.604584 5.007505 0.000477 27.070341 -16.637131 -8.408555 290.647736
75 290.604584 5.007505 0.000477 24.810095 -14.553363 -6.191266 290.647736
[L_Leg01]
73 761.932007 -0.002384 -0.069261 -6.723166 -21.307030 56.775219 761.932068
74 761.932007 -0.002384 -0.069261 -7.702702 -22.575375 54.482582 761.932068
75 761.932007 -0.002384 -0.069261 -8.316048 -24.316175 51.592854 761.932068
[L_Leg02]
73 1441.140503 -0.000954 -0.000715 8.889336 -0.038544 173.577927 1441.140503
74 1441.140503 -0.000954 -0.000715 8.641638 -0.042912 176.081070 1441.140503
75 1441.140503 -0.000954 -0.000715 8.313134 -0.044800 179.365326 1441.140503
[L_Leg03]
73 1686.963989 -0.000715 -0.000954 -0.044587 0.022997 122.467094 1686.963989
74 1686.963989 -0.000715 -0.000954 -0.044005 0.021888 122.399368 1686.963989
75 1686.963989 -0.000715 -0.000954 -0.043422 0.020779 122.331642 1686.963989
[L_Foot]
73 3041.570068 -30.715107 11.297464 14.494094 -11.859697 57.899315 3041.746094
74 3041.570068 -30.715107 11.297464 17.864769 -13.159888 58.408249 3041.746094
75 3041.570068 -30.715107 11.297464 20.198549 -14.019402 58.424244 3041.746094
[L_Toe1_01]
73 -188.216690 -224.732346 -21.137953 94.000824 -7.812287 -174.914383 293.899567
74 -188.216690 -224.732346 -21.137953 93.997047 -7.819576 -174.856430 293.899567
75 -188.216690 -224.732346 -21.137953 93.993271 -7.826860 -174.798477 293.899567
[L_Toe2_01]
73 200.746536 -219.926590 148.838394 -90.639656 -27.971712 -50.071335 332.896027
74 200.746536 -219.926590 148.838394 -90.624199 -27.973827 -50.104576 332.896027
75 200.746536 -219.926590 148.838394 -90.608734 -27.975931 -50.137817 332.896027
[L_Toe3_01]
73 188.832520 -219.859131 -191.078659 -98.873405 13.564963 -63.723888 347.140900
74 188.832520 -219.859131 -191.078659 -98.855965 13.553966 -63.656250 347.140900
75 188.832520 -219.859131 -191.078659 -98.867714 13.504398 -63.791344 347.140900
[planeAlignerLeft]
73 0.812531 -811.448792 -0.314951 0.000000 -90.000000 -90.001900 811.449280
74 0.812531 -811.448792 -0.314951 0.000000 -90.000000 -90.001900 811.449280
75 0.812531 -811.448792 -0.314951 0.000000 -90.000000 -90.001900 811.449280
[L_Toe1_02]
73 413.761139 0.000477 0.000000 0.001384 -25.983015 0.001384 413.761139
74 413.761139 0.000477 0.000000 0.001384 -25.979269 0.001384 413.761139
75 413.761139 0.000477 0.000000 0.001384 -25.975531 0.001384 413.761139
[L_Toe1_03]
73 464.317322 0.000358 -0.000089 0.004018 56.030418 0.004018 464.317322
74 464.317322 0.000358 -0.000089 0.004022 56.065426 0.004022 464.317322
75 464.317322 0.000358 -0.000089 0.004005 55.919796 0.004005 464.317322
[L_Toe2_02]
73 342.235809 -0.000477 0.000238 0.001187 -72.923843 0.001187 342.235809
74 342.235809 -0.000477 0.000238 0.001187 -72.914589 0.001187 342.235809
75 342.235809 -0.000477 0.000238 0.001187 -72.905373 0.001187 342.235809
[L_Toe2_03]
73 420.210846 -0.000715 0.000000 -0.022817 86.873383 -0.019319 420.210846
74 420.210846 -0.000715 0.000000 -0.022850 86.878265 -0.019352 420.210846
75 420.210846 -0.000715 0.000000 -0.021968 86.742081 -0.018470 420.210846
[L_Toe3_02]
73 329.270111 0.000954 0.000000 0.001177 -81.751999 0.001177 329.270111
74 329.270111 0.000954 0.000000 0.001177 -81.795486 0.001177 329.270111
75 329.270111 0.000954 0.000000 0.001177 -81.695869 0.001177 329.270111
[L_Toe3_03]
73 439.137451 -0.001907 0.000954 -179.997910 72.915657 -179.994370 439.137451
74 439.137451 -0.001907 0.000954 -179.997894 72.989487 -179.994354 439.137451
75 439.137451 -0.001907 0.000954 -179.997864 73.063301 -179.994339 439.137451
[planeLockWeightLeft]
73 -0.000954 0.000238 -0.000305 -0.011826 -0.004376 0.005620 0.001029
74 -0.000954 0.000238 -0.000305 -0.011826 -0.004376 0.005620 0.001029
75 -0.000954 0.000238 -0.000305 -0.011826 -0.004376 0.005620 0.001029
[R_Leg01]
73 761.455627 -0.001907 -0.000358 86.570572 18.247719 39.152069 761.455688
74 761.455627 -0.001907 -0.000358 86.309799 -5.900099 44.857662 761.455688
75 761.455627 -0.001907 -0.000358 81.354691 -28.792048 51.174992 761.455688
[R_Leg02]
73 1441.140625 0.000000 -0.000238 -1.294381 -0.184717 -117.703339 1441.140625
74 1441.140625 0.000000 -0.000238 -2.215031 -0.675455 -143.975479 1441.140625
75 1441.140625 0.000000 -0.000238 -2.698191 -1.017519 -159.299957 1441.140625
[R_Leg03]
73 1686.963989 0.000954 0.001431 0.075878 -0.043381 131.098358 1686.963989
74 1686.963989 0.000954 0.001431 0.099117 -0.058531 137.161987 1686.963989
75 1686.963989 0.000954 0.001431 0.110424 -0.066697 139.811798 1686.963989
[R_Foot]
73 3041.560059 -30.531288 -11.204481 78.643013 -73.036789 8.673333 3041.734131
74 3041.560059 -30.531288 -11.204481 38.098778 -72.725731 50.956779 3041.734131
75 3041.560059 -30.531288 -11.204481 13.730462 -66.086533 70.861282 3041.734131
[planeAlignerRight]
73 -0.635147 -812.270569 -0.364304 0.000000 -89.960434 -90.005180 812.270874
74 -0.635147 -812.270569 -0.364304 0.000000 -89.960434 -90.005180 812.270874
75 -0.635147 -812.270569 -0.364304 0.000000 -89.960434 -90.005180 812.270874
[R_Toe1_01]
73 -188.383347 -224.864899 21.052242 75.147255 5.804660 -178.319397 294.101532
74 -188.383347 -224.864899 21.052242 75.154915 5.878351 -177.406631 294.101532
75 -188.383347 -224.864899 21.052242 75.181290 5.863115 -176.938766 294.101532
[R_Toe2_01]
73 200.637817 -220.002121 -148.787384 -90.768219 37.857941 -54.648754 332.857574
74 200.637817 -220.002121 -148.787384 -90.771912 37.549347 -54.879936 332.857574
75 200.637817 -220.002121 -148.787384 -90.833878 37.409412 -55.079346 332.857574
[R_Toe3_01]
73 188.606735 -220.092957 191.126343 -76.097404 -1.085940 -69.267616 347.192566
74 188.606735 -220.092957 191.126343 -76.129051 -0.924819 -70.033180 347.192566
75 188.606735 -220.092957 191.126343 -76.120132 -0.915312 -70.414139 347.192566
[planeLockWeightRight]
73 -0.000477 0.000000 0.000000 -0.011823 -0.004379 -0.000027 0.000477
74 -0.000477 0.000000 0.000000 -0.011823 -0.004379 -0.000027 0.000477
75 -0.000477 0.000000 0.000000 -0.011823 -0.004379 -0.000027 0.000477
[R_Toe1_02]
73 413.762085 0.000477 -0.000119 0.001415 -22.063679 0.001415 413.762085
74 413.762085 0.000477 -0.000119 0.001414 -22.177071 0.001414 413.762085
75 413.762085 0.000477 -0.000119 0.001413 -22.290466 0.001413 413.762085
[R_Toe1_03]
73 464.317810 0.000000 0.001088 -0.010619 82.567627 -0.007115 464.317810
74 464.317810 0.000000 0.001088 0.003447 82.056335 0.005199 464.317810
75 464.317810 0.000000 0.001088 0.015920 81.544876 0.015920 464.317810
[R_Toe2_02]
73 342.234741 -0.000954 0.000238 0.001259 -47.619019 0.001259 342.234741
74 342.234741 -0.000954 0.000238 0.001265 -46.136623 0.001265 342.234741
75 342.234741 -0.000954 0.000238 0.001269 -45.358295 0.001269 342.234741
[R_Toe2_03]
73 420.210846 0.000715 -0.000268 -0.003372 44.057056 0.000426 420.210846
74 420.210846 0.000715 -0.000268 -0.003334 42.344269 0.000489 420.210846
75 420.210846 0.000715 -0.000268 -0.003316 41.444004 0.000520 420.210846
[R_Toe3_02]
73 329.270355 -0.000477 -0.000954 0.001185 -74.183434 0.001185 329.270355
74 329.270355 -0.000477 -0.000954 0.001186 -73.385681 0.001186 329.270355
75 329.270355 -0.000477 -0.000954 0.001187 -73.047249 0.001187 329.270355
[R_Toe3_03]
73 439.137939 0.000238 0.001431 0.017996 82.521599 0.017996 439.137939
74 439.137939 0.000238 0.001431 0.014445 80.679176 0.014445 439.137939
75 439.137939 0.000238 0.001431 0.013111 79.728714 0.013111 439.137939
[Rear_Leg02]
73 1162.777710 -0.029802 0.005960 1.544384 -2.538109 -143.450333 1162.777710
74 1162.777710 -0.029802 0.005960 1.250256 -2.701107 -136.706558 1162.777710
75 1162.777710 -0.029802 0.005960 1.035353 -2.789658 -132.064453 1162.777710
[Rear_Leg03]
73 607.192505 -0.013351 -0.073195 0.010367 -0.005359 71.028244 607.192505
74 607.192505 -0.013351 -0.073195 0.010461 -0.005170 68.956200 607.192505
75 607.192505 -0.013351 -0.073195 0.010528 -0.005031 67.433212 607.192505
[Rear_Leg04]
73 995.874512 -0.020504 -0.011921 -0.041073 -0.016794 72.884941 995.874573
74 995.874512 -0.020504 -0.011921 -0.040324 -0.018521 68.022896 995.874573
75 995.874512 -0.020504 -0.011921 -0.039762 -0.019698 64.654961 995.874573
[Rear_Foot]
73 3096.176270 -0.067472 -0.041425 -5.729173 66.390816 -167.737137 3096.176270
74 3096.176270 -0.067472 -0.041425 -5.805347 65.941330 -169.360596 3096.176270
75 3096.176270 -0.067472 -0.041425 -6.152986 66.988609 -170.410126 3096.176270
[planeAlignerCenter]
73 0.350077 0.966311 -838.790894 0.000009 0.000003 -179.999985 838.791565
74 0.350077 0.966311 -838.790894 0.000009 0.000003 -179.999985 838.791565
75 0.350077 0.966311 -838.790894 0.000009 0.000003 -179.999985 838.791565
[Rear_Toe1_01]
73 0.653352 83.966492 -371.173737 0.294207 41.909908 90.409622 380.553192
74 0.653352 83.966492 -371.173737 0.294214 41.909843 90.409645 380.553192
75 0.653352 83.966492 -371.173737 0.294220 41.909790 90.409668 380.553192
[Rear_Toe2_01]
73 178.200760 -294.826019 -362.060547 -7.198826 34.404686 -66.271767 499.765686
74 178.200760 -294.826019 -362.060547 -7.198865 34.404667 -66.271782 499.765686
75 178.200760 -294.826019 -362.060547 -7.198895 34.404644 -66.271782 499.765686
[Rear_Toe3_01]
73 -153.359680 -308.780914 -362.060852 3.289962 33.514000 -112.541718 499.952881
74 -153.359680 -308.780914 -362.060852 3.289972 33.513950 -112.541725 499.952881
75 -153.359680 -308.780914 -362.060852 3.289978 33.513893 -112.541740 499.952881
[planeLockWeightCenter]
73 -0.000062 0.000238 0.000000 -0.011814 -0.004373 -0.000015 0.000246
74 -0.000062 0.000238 0.000000 -0.011814 -0.004373 -0.000015 0.000246
75 -0.000062 0.000238 0.000000 -0.011814 -0.004373 -0.000015 0.000246
[Rear_Toe1_02]
73 379.707825 0.194073 0.000477 -0.000242 -31.679626 0.006934 379.707855
74 379.707825 0.194073 0.000477 -0.000242 -31.679678 0.006934 379.707855
75 379.707825 0.194073 0.000477 -0.000242 -31.679716 0.006934 379.707855
[Rear_Toe1_03]
73 500.129700 0.165701 0.000119 -0.000102 51.911762 0.007296 500.129761
74 500.129700 0.165701 0.000119 -0.000102 51.911896 0.007296 500.129761
75 500.129700 0.165701 0.000119 -0.000102 51.912022 0.007296 500.129761
[Rear_Toe2_02]
73 340.494507 0.000238 -0.000954 0.001192 -69.857918 0.001192 340.494507
74 340.494507 0.000238 -0.000954 0.001192 -69.857964 0.001192 340.494507
75 340.494507 0.000238 -0.000954 0.001192 -69.858009 0.001192 340.494507
[Rear_Toe2_03]
73 433.103577 0.000000 0.000238 0.006697 69.813728 0.006697 433.103546
74 433.103577 0.000000 0.000238 0.006697 69.813782 0.006697 433.103546
75 433.103577 0.000000 0.000238 0.006697 69.813805 0.006697 433.103546
[Rear_Toe3_02]
73 340.494141 -0.000358 -0.000477 0.008289 -67.278030 -0.009462 340.494171
74 340.494141 -0.000358 -0.000477 0.008289 -67.278091 -0.009462 340.494171
75 340.494141 -0.000358 -0.000477 0.008289 -67.278130 -0.009462 340.494171
[Rear_Toe3_03]
73 433.103577 0.001431 -0.000238 -0.000972 65.958984 -0.004547 433.103546
74 433.103577 0.001431 -0.000238 -0.000972 65.958984 -0.004547 433.103546
75 433.103577 0.001431 -0.000238 -0.000972 65.958984 -0.004547 433.103546
[Back_Bone]
73 1312.175781 -701.934692 0.000954 0.000023 -0.000007 -85.606667 1488.125488
74 1312.175781 -701.934692 0.000954 0.000023 -0.000007 -85.606667 1488.125488
75 1312.175781 -701.934692 0.000954 0.000023 -0.000007 -85.606667 1488.125488
[Head]
73 1406.159424 809.709290 0.001431 0.000897 -1.475969 8.129955 1622.625488
74 1406.159424 809.709290 0.001431 0.000806 -1.475854 8.009313 1622.625488
75 1406.159424 809.709290 0.001431 0.000716 -1.475739 7.888670 1622.625488
[Motor_Bone]
73 1158.364380 -417.834747 0.000477 -1.298103 -0.496916 -105.887367 1231.419434
74 1158.364380 -417.834747 0.000477 -1.033560 -0.374431 -105.894814 1231.419434
75 1158.364380 -417.834747 0.000477 -0.769035 -0.251913 -105.901703 1231.419434
[Ping_Mechanism]
73 1234.645752 -432.794281 6.087544 0.000103 -0.000053 82.120995 1308.318726
74 1234.740601 -433.029175 5.844879 0.000103 -0.000053 82.120995 1308.484985
75 1234.682007 -433.749664 5.361262 0.000103 -0.000053 82.120995 1308.666138
[BN_LookIK]
73 193.241119 1380.371704 -0.002861 0.000000 89.965736 -31.038179 1393.832153
74 193.241119 1380.371704 -0.002861 0.000000 89.965736 -31.038179 1393.832153
75 193.241119 1380.371704 -0.002861 0.000000 89.965736 -31.038179 1393.832153
[bottomMouth]
73 -435.092926 615.759399 -0.000954 -0.000022 0.000016 73.527184 753.966492
74 -435.092926 615.759399 -0.000954 -0.000022 0.000016 73.527184 753.966492
75 -435.092926 615.759399 -0.000954 -0.000022 0.000016 73.527184 753.966492
[L_Mouth01]
73 554.440979 7.658243 838.222046 150.204178 23.759130 109.605339 1005.027161
74 554.440979 7.658243 838.222046 150.204178 23.759130 109.605339 1005.027161
75 554.440979 7.658243 838.222046 150.204178 23.759130 109.605339 1005.027161
[L_mouthFront]
73 551.629089 934.514771 339.150421 0.000081 2.804060 79.119301 1136.941284
74 551.629089 934.514771 339.150421 0.000081 2.804060 79.119301 1136.941284
75 551.629089 934.514771 339.150421 0.000081 2.804060 79.119301 1136.941284
[mouthGun]
73 55.332661 1627.420898 0.000000 0.000023 0.000009 -11.038128 1628.361328
74 55.332661 1627.420898 0.000000 0.000023 0.000009 -11.038128 1628.361328
75 55.332661 1627.420898 0.000000 0.000023 0.000009 -11.038128 1628.361328
[R_Mouth01]
73 554.442383 7.659197 -838.223938 29.795891 -23.759109 109.605331 1005.029541
74 554.442383 7.659197 -838.223938 29.795891 -23.759109 109.605331 1005.029541
75 554.442383 7.659197 -838.223938 29.795891 -23.759109 109.605331 1005.029541
[R_mouthFront]
73 551.629089 934.514282 -339.151367 0.000029 -2.803930 79.119133 1136.941162
74 551.629089 934.514282 -339.151367 0.000029 -2.803930 79.119133 1136.941162
75 551.629089 934.514282 -339.151367 0.000029 -2.803930 79.119133 1136.941162
[TopMouth]
73 461.269867 -56.106091 -0.008583 -0.000059 -0.000268 92.025169 464.669525
74 461.269867 -56.106091 -0.008583 -0.000059 -0.000268 92.025169 464.669525
75 461.269867 -56.106091 -0.008583 -0.000059 -0.000268 92.025169 464.669525
[weapon_bone]
73 -987.239868 1448.372803 0.001431 0.000000 89.965736 -31.038221 1752.833740
74 -987.239868 1448.372803 0.001431 0.000000 89.965736 -31.038221 1752.833740
75 -987.239868 1448.372803 0.001431 0.000000 89.965736 -31.038221 1752.833740
